Coordinates
version=1
nRows=14
nColumns=24
inDegrees=yes

Units are S.I. units (second, meters, Newtons, ...)
Angles are in degrees.

endheader
time	pelvis_tilt	pelvis_list	pelvis_rotation	pelvis_tx	pelvis_ty	pelvis_tz	hip_flexion_r	hip_adduction_r	hip_rotation_r	knee_angle_r	ankle_angle_r	subtalar_angle_r	mtp_angle_r	hip_flexion_l	hip_adduction_l	hip_rotation_l	knee_angle_l	ankle_angle_l	subtalar_angle_l	mtp_angle_l	lumbar_extension	lumbar_bending	lumbar_rotation
      0.48400000	      0.63996565	      4.22015241	     -1.98401585	     -0.75872973	      1.00646213	      0.26069039	     21.82806781	     -3.13599316	     -3.94422178	     -5.45462995	      5.73095491	     -7.08529926	      8.81664825	    -15.18380366	      8.10468052	      6.18178214	     -6.12006574	      9.35314902	    -15.89990038	      2.57172541	     -6.71821474	     -5.50345555	     -4.08416985
      0.48816667	      0.69615823	      4.21319980	     -1.89875472	     -0.75280680	      1.00603039	      0.26100324	     21.68984957	     -3.08722497	     -3.74227812	     -5.56503329	      5.81617268	     -7.10370218	      8.81870097	    -15.30025212	      8.07493857	      6.24252817	     -6.74291389	      9.47808049	    -15.77461887	      2.60316282	     -6.72775716	     -5.45969901	     -4.15157430
      0.49233333	      0.76294424	      4.18567981	     -1.81068166	     -0.74681860	      1.00564733	      0.26135596	     21.50584689	     -3.01321982	     -3.49196412	     -5.67773646	      5.82444503	     -7.19535122	      8.82916548	    -15.37640009	      8.00802394	      6.11799257	     -7.46913114	      9.63338325	    -15.36391306	      2.68182793	     -6.73955653	     -5.41388576	     -4.26316441
      0.49650000	      0.78618160	      4.17038348	     -1.72728242	     -0.74080258	      1.00523298	      0.26169878	     21.37868990	     -2.94985512	     -3.22017122	     -5.86819641	      5.79174067	     -7.32096890	      8.84969047	    -15.37911611	      7.96085410	      6.03499623	     -8.24881041	      9.75806505	    -15.04644144	      2.78861792	     -6.69269687	     -5.37084200	     -4.31116356
      0.50066667	      0.84454376	      4.14671315	     -1.65407851	     -0.73475199	      1.00488518	      0.26206684	     21.20348508	     -2.87557530	     -2.92196754	     -6.09384600	      5.71399859	     -7.47925490	      8.87954043	    -15.39956514	      7.90353803	      5.90785865	     -9.06778469	      9.86598867	    -14.68968434	      2.92181718	     -6.68789645	     -5.31533606	     -4.35222257
      0.50483333	      0.89757507	      4.12813241	     -1.59032537	     -0.72869624	      1.00454890	      0.26244659	     21.04876609	     -2.80500984	     -2.62393160	     -6.39368425	      5.58140264	     -7.64155918	      8.91215912	    -15.38928031	      7.85671001	      5.80487414	     -9.93315265	      9.95977958	    -14.37758889	      3.05570670	     -6.68803334	     -5.26037127	     -4.37557724
      0.50900000	      0.94864745	      4.10132985	     -1.52786679	     -0.72258832	      1.00424430	      0.26284132	     20.87338621	     -2.72395722	     -2.30847670	     -6.69126957	      5.37215767	     -7.86310963	      8.95746675	    -15.32584042	      7.79187943	      5.58709952	    -10.89518714	     10.02228212	    -13.92697704	      3.23326263	     -6.66086981	     -5.20078400	     -4.39776886
      0.51316667	      1.06718720	      4.05252688	     -1.47886505	     -0.71643662	      1.00406353	      0.26326692	     20.60267033	     -2.62043179	     -2.00608583	     -6.98113021	      5.13793625	     -8.02355930	      9.20293177	    -15.30107832	      7.69301062	      5.24311368	    -11.91949847	     10.06381510	    -13.32715195	      4.18116508	     -6.70572718	     -5.11867690	     -4.35606503
      0.51733333	      1.02267754	      4.04736154	     -1.40236583	     -0.71028773	      1.00368248	      0.26364183	     20.55095164	     -2.56543880	     -1.71366566	     -7.39247462	      4.85097001	     -8.30958263	      9.24301843	    -15.07409948	      7.65326906	      5.11113762	    -12.99181525	     10.01014006	    -13.04365945	      4.36057317	     -6.55672989	     -5.07592999	     -4.38224099
      0.52150000	      1.10745909	      3.98682429	     -1.34956896	     -0.70409020	      1.00350364	      0.26408726	     20.31249578	     -2.45098191	     -1.42932175	     -7.73376486	      4.52902154	     -8.55074384	     10.47674425	    -14.92356031	      7.52441748	      4.67808917	    -14.17342417	      9.92914459	    -12.43993657	      9.74018246	     -6.55104687	     -4.97081891	     -4.32171286
      0.52566667	      1.11768847	      3.96367054	     -1.29150290	     -0.69791313	      1.00325660	      0.26453475	     20.17684094	     -2.37441391	     -1.13529707	     -8.13655019	      4.17194700	     -8.83227980	     10.46683304	    -14.66522819	      7.44232358	      4.35688872	    -15.40662559	      9.81874521	    -11.92555656	      9.80447760	     -6.45621278	     -4.92404173	     -4.31529591
      0.52983333	      1.18393858	      3.91594978	     -1.24879153	     -0.69173583	      1.00309680	      0.26499644	     19.98492941	     -2.27587594	     -0.88654897	     -8.56422064	      3.80107720	     -9.06328395	     10.46514344	    -14.42088278	      7.32389604	      3.93921839	    -16.71799551	      9.69745571	    -11.30425769	      9.93068282	     -6.43343493	     -4.83752083	     -4.24868113
      0.53400000	      1.20890711	      3.86882188	     -1.20066415	     -0.68555873	      1.00291078	      0.26546113	     19.84354260	     -2.18079187	     -0.66072828	     -9.01918353	      3.43160824	     -9.29083498	     10.46800917	    -14.08425792	      7.19793627	      3.51680740	    -18.11461317	      9.51787388	    -10.70942831	     10.11412389	     -6.35751652	     -4.75366796	     -4.18571451
      0.53816667	      1.26454537	      3.81239107	     -1.16063771	     -0.67940315	      1.00278322	      0.26594821	     19.67759479	     -2.07880896	     -0.46644162	     -9.50056876	      3.06763881	     -9.49797813	     10.47413611	    -13.73702984	      7.04929576	      3.03703873	    -19.57761558	      9.28235248	    -10.07279564	     10.36053765	     -6.32174140	     -4.66172183	     -4.10178327
